<mxfile host="app.diagrams.net" agent="Mozilla/5.0 (Windows NT 10.0; Win64; x64) AppleWebKit/537.36 (KHTML, like Gecko) Chrome/130.0.0.0 Safari/537.36" version="24.8.2">
  <diagram name="Page-1" id="86E9SEI1MqaYpixD4n7x">
    <mxGraphModel dx="2109" dy="686" grid="1" gridSize="10" guides="1" tooltips="1" connect="1" arrows="1" fold="1" page="1" pageScale="1" pageWidth="850" pageHeight="1100" math="0" shadow="0">
      <root>
        <mxCell id="0" />
        <mxCell id="1" parent="0" />
        <mxCell id="bKpbLWB4WOHeIBxPXzTs-3" style="edgeStyle=orthogonalEdgeStyle;rounded=0;orthogonalLoop=1;jettySize=auto;html=1;entryX=0.5;entryY=0;entryDx=0;entryDy=0;" edge="1" parent="1" source="bKpbLWB4WOHeIBxPXzTs-1" target="bKpbLWB4WOHeIBxPXzTs-2">
          <mxGeometry relative="1" as="geometry" />
        </mxCell>
        <mxCell id="bKpbLWB4WOHeIBxPXzTs-12" style="edgeStyle=orthogonalEdgeStyle;rounded=0;orthogonalLoop=1;jettySize=auto;html=1;entryX=0.5;entryY=0;entryDx=0;entryDy=0;" edge="1" parent="1" source="bKpbLWB4WOHeIBxPXzTs-1" target="bKpbLWB4WOHeIBxPXzTs-11">
          <mxGeometry relative="1" as="geometry" />
        </mxCell>
        <mxCell id="bKpbLWB4WOHeIBxPXzTs-1" value="&lt;b&gt;deployment&lt;/b&gt;" style="rounded=0;whiteSpace=wrap;html=1;fillColor=#dae8fc;gradientColor=#7ea6e0;strokeColor=#6c8ebf;" vertex="1" parent="1">
          <mxGeometry x="80" y="80" width="120" height="60" as="geometry" />
        </mxCell>
        <mxCell id="bKpbLWB4WOHeIBxPXzTs-8" style="edgeStyle=orthogonalEdgeStyle;rounded=0;orthogonalLoop=1;jettySize=auto;html=1;entryX=0.5;entryY=0;entryDx=0;entryDy=0;" edge="1" parent="1" source="bKpbLWB4WOHeIBxPXzTs-2" target="bKpbLWB4WOHeIBxPXzTs-5">
          <mxGeometry relative="1" as="geometry" />
        </mxCell>
        <mxCell id="bKpbLWB4WOHeIBxPXzTs-9" style="edgeStyle=orthogonalEdgeStyle;rounded=0;orthogonalLoop=1;jettySize=auto;html=1;entryX=0.5;entryY=0;entryDx=0;entryDy=0;" edge="1" parent="1" source="bKpbLWB4WOHeIBxPXzTs-2" target="bKpbLWB4WOHeIBxPXzTs-4">
          <mxGeometry relative="1" as="geometry" />
        </mxCell>
        <mxCell id="bKpbLWB4WOHeIBxPXzTs-10" style="edgeStyle=orthogonalEdgeStyle;rounded=0;orthogonalLoop=1;jettySize=auto;html=1;entryX=0.5;entryY=0;entryDx=0;entryDy=0;" edge="1" parent="1" source="bKpbLWB4WOHeIBxPXzTs-2" target="bKpbLWB4WOHeIBxPXzTs-6">
          <mxGeometry relative="1" as="geometry" />
        </mxCell>
        <mxCell id="bKpbLWB4WOHeIBxPXzTs-2" value="&lt;b&gt;RS-1&lt;/b&gt;" style="rhombus;whiteSpace=wrap;html=1;fillColor=#d5e8d4;gradientColor=#97d077;strokeColor=#82b366;" vertex="1" parent="1">
          <mxGeometry x="100" y="220" width="80" height="80" as="geometry" />
        </mxCell>
        <mxCell id="bKpbLWB4WOHeIBxPXzTs-4" value="" style="ellipse;whiteSpace=wrap;html=1;" vertex="1" parent="1">
          <mxGeometry x="-50" y="360" width="100" height="60" as="geometry" />
        </mxCell>
        <mxCell id="bKpbLWB4WOHeIBxPXzTs-5" value="" style="ellipse;whiteSpace=wrap;html=1;" vertex="1" parent="1">
          <mxGeometry x="90" y="360" width="100" height="60" as="geometry" />
        </mxCell>
        <mxCell id="bKpbLWB4WOHeIBxPXzTs-6" value="" style="ellipse;whiteSpace=wrap;html=1;" vertex="1" parent="1">
          <mxGeometry x="240" y="360" width="100" height="60" as="geometry" />
        </mxCell>
        <mxCell id="bKpbLWB4WOHeIBxPXzTs-15" style="edgeStyle=orthogonalEdgeStyle;rounded=0;orthogonalLoop=1;jettySize=auto;html=1;entryX=0.5;entryY=0;entryDx=0;entryDy=0;" edge="1" parent="1" source="bKpbLWB4WOHeIBxPXzTs-11" target="bKpbLWB4WOHeIBxPXzTs-13">
          <mxGeometry relative="1" as="geometry">
            <Array as="points">
              <mxPoint x="450" y="260" />
            </Array>
          </mxGeometry>
        </mxCell>
        <mxCell id="bKpbLWB4WOHeIBxPXzTs-20" style="edgeStyle=orthogonalEdgeStyle;rounded=0;orthogonalLoop=1;jettySize=auto;html=1;entryX=0.5;entryY=0;entryDx=0;entryDy=0;" edge="1" parent="1" source="bKpbLWB4WOHeIBxPXzTs-11" target="bKpbLWB4WOHeIBxPXzTs-19">
          <mxGeometry relative="1" as="geometry" />
        </mxCell>
        <mxCell id="bKpbLWB4WOHeIBxPXzTs-24" style="edgeStyle=orthogonalEdgeStyle;rounded=0;orthogonalLoop=1;jettySize=auto;html=1;entryX=0.5;entryY=0;entryDx=0;entryDy=0;" edge="1" parent="1" source="bKpbLWB4WOHeIBxPXzTs-11" target="bKpbLWB4WOHeIBxPXzTs-23">
          <mxGeometry relative="1" as="geometry" />
        </mxCell>
        <mxCell id="bKpbLWB4WOHeIBxPXzTs-11" value="&lt;b&gt;RS-2&lt;/b&gt;" style="rhombus;whiteSpace=wrap;html=1;fillColor=#f8cecc;gradientColor=#ea6b66;strokeColor=#b85450;" vertex="1" parent="1">
          <mxGeometry x="540" y="220" width="80" height="80" as="geometry" />
        </mxCell>
        <mxCell id="bKpbLWB4WOHeIBxPXzTs-13" value="" style="ellipse;whiteSpace=wrap;html=1;" vertex="1" parent="1">
          <mxGeometry x="400" y="360" width="100" height="60" as="geometry" />
        </mxCell>
        <mxCell id="bKpbLWB4WOHeIBxPXzTs-17" value="" style="endArrow=none;html=1;rounded=0;" edge="1" parent="1">
          <mxGeometry width="50" height="50" relative="1" as="geometry">
            <mxPoint x="220" y="430" as="sourcePoint" />
            <mxPoint x="360" y="340" as="targetPoint" />
          </mxGeometry>
        </mxCell>
        <mxCell id="bKpbLWB4WOHeIBxPXzTs-18" value="" style="endArrow=none;html=1;rounded=0;" edge="1" parent="1">
          <mxGeometry width="50" height="50" relative="1" as="geometry">
            <mxPoint x="340" y="440" as="sourcePoint" />
            <mxPoint x="240" y="340" as="targetPoint" />
          </mxGeometry>
        </mxCell>
        <mxCell id="bKpbLWB4WOHeIBxPXzTs-19" value="" style="ellipse;whiteSpace=wrap;html=1;" vertex="1" parent="1">
          <mxGeometry x="530" y="360" width="100" height="60" as="geometry" />
        </mxCell>
        <mxCell id="bKpbLWB4WOHeIBxPXzTs-21" value="" style="endArrow=none;html=1;rounded=0;" edge="1" parent="1">
          <mxGeometry width="50" height="50" relative="1" as="geometry">
            <mxPoint x="70" y="435" as="sourcePoint" />
            <mxPoint x="210" y="345" as="targetPoint" />
          </mxGeometry>
        </mxCell>
        <mxCell id="bKpbLWB4WOHeIBxPXzTs-22" value="" style="endArrow=none;html=1;rounded=0;" edge="1" parent="1">
          <mxGeometry width="50" height="50" relative="1" as="geometry">
            <mxPoint x="200" y="450" as="sourcePoint" />
            <mxPoint x="100" y="350" as="targetPoint" />
          </mxGeometry>
        </mxCell>
        <mxCell id="bKpbLWB4WOHeIBxPXzTs-23" value="" style="ellipse;whiteSpace=wrap;html=1;" vertex="1" parent="1">
          <mxGeometry x="670" y="360" width="100" height="60" as="geometry" />
        </mxCell>
        <mxCell id="bKpbLWB4WOHeIBxPXzTs-25" value="" style="endArrow=none;html=1;rounded=0;" edge="1" parent="1">
          <mxGeometry width="50" height="50" relative="1" as="geometry">
            <mxPoint x="-80" y="440" as="sourcePoint" />
            <mxPoint x="60" y="350" as="targetPoint" />
          </mxGeometry>
        </mxCell>
        <mxCell id="bKpbLWB4WOHeIBxPXzTs-26" value="" style="endArrow=none;html=1;rounded=0;" edge="1" parent="1">
          <mxGeometry width="50" height="50" relative="1" as="geometry">
            <mxPoint x="50" y="440" as="sourcePoint" />
            <mxPoint x="-50" y="340" as="targetPoint" />
          </mxGeometry>
        </mxCell>
        <mxCell id="bKpbLWB4WOHeIBxPXzTs-27" value="" style="endArrow=none;html=1;rounded=0;" edge="1" parent="1">
          <mxGeometry width="50" height="50" relative="1" as="geometry">
            <mxPoint x="190" y="310" as="sourcePoint" />
            <mxPoint x="90" y="210" as="targetPoint" />
          </mxGeometry>
        </mxCell>
        <mxCell id="bKpbLWB4WOHeIBxPXzTs-28" value="" style="endArrow=none;html=1;rounded=0;" edge="1" parent="1">
          <mxGeometry width="50" height="50" relative="1" as="geometry">
            <mxPoint x="70" y="310" as="sourcePoint" />
            <mxPoint x="210" y="220" as="targetPoint" />
          </mxGeometry>
        </mxCell>
      </root>
    </mxGraphModel>
  </diagram>
</mxfile>
